<svg style="position: absolute; width: 0; height: 0; overflow: hidden;" aria-hidden="true" version="1.1" xmlns="http://www.w3.org/2000/svg" xmlns:xlink="http://www.w3.org/1999/xlink">
    <style>
        .default-palette, .palette0 {color: currentColor;
            --color0: #f8fafb;
            --color1: #a452fa;
            --color2: #bd81ff;
        }
    </style>
    <defs>
        <symbol id="youtube" viewBox="0 0 12 12" fill="none">
            <path fill="var(--color0, #f8fafb)" d="M6.1994 9.2175 4.3529 9.1837C3.7551 9.1719 3.1558 9.1954 2.5697 9.0735 1.678 8.8914 1.6149 7.9983 1.5488 7.2491 1.4577 6.1959 1.493 5.1236 1.6648 4.0792c0.097-0.5861 0.4789-0.9358 1.0694-0.9738 1.9933-0.1381 3.9999-0.1217 5.9888-0.0573 0.2101 59e-4 0.4216 0.0382 0.6287 0.0749 1.0224 0.1792 1.0474 1.1913 1.1136 2.0433 0.0661 0.8608 0.0382 1.726-0.0881 2.5809-0.1014 0.7079-0.2953 1.3015-1.1136 1.3588-1.0254 0.0749-2.0272 0.1352-3.0554 0.116 0-45e-4-59e-4-45e-4-88e-4-45e-4zM5.1139 7.4254c0.7726-0.4437 1.5306-0.8799 2.2988-1.3206-0.7741-0.4436-1.5306-0.8799-2.2988-1.3205z" />
        </symbol>
        <symbol id="twitter" viewBox="0 0 12 12" fill="none">
            <path fill="var(--color0, #f8fafb)" d="M4.3304 9.8171c3.3964 0 5.2538-2.8148 5.2538-5.2557 0-0.08-17e-4-0.1596-53e-4-0.2388C9.9403 4.061 10.2522 3.7371 10.5 3.3661 10.1691 3.5132 9.8131 3.6123 9.4396 3.6569c0.3812-0.2287 0.6739-0.5904 0.812-1.0217-0.3625 0.2151-0.759 0.3668-1.1725 0.4484C8.7421 2.7246 8.2624 2.5 7.7312 2.5c-1.0197 0-1.8466 0.8272-1.8466 1.8469 0 0.145 0.0162 0.286 0.0479 0.4212C4.3979 4.6909 3.037 3.9558 2.1263 2.8382c-0.164 0.2819-0.2503 0.6022-0.25 0.9284 0 0.6408 0.326 1.2066 0.8217 1.5376-0.2932-9e-3-0.58-0.0882-0.8363-0.2311-2e-4 78e-4-2e-4 0.0153-2e-4 0.0236 0 0.8946 0.6364 1.6415 1.4813 1.8108-0.1587 0.0432-0.3224 0.065-0.4869 0.0649-0.1187 0-0.2345-0.0116-0.347-0.0332 0.2351 0.7339 0.9167 1.268 1.7249 1.2829-0.632 0.4955-1.4281 0.7907-2.2934 0.7907-0.1471 1e-4-0.2942-84e-4-0.4404-0.0256 0.8172 0.524 1.7875 0.8299 2.8304 0.8299z" />
        </symbol>
        <symbol id="right-arrow" viewBox="0 0 24 19" fill="none">
            <path fill="var(--color0, #f8fafb)" d="M15.6095 18.2761l8-8c0.5207-0.5207 0.5207-1.3649 0-1.8856l-8-8c-0.5207-0.5207-1.3649-0.5207-1.8856 0-0.5207 0.5207-0.5207 1.3649 0 1.8856L19.4477 8H1.3333C0.597 8 0 8.597 0 9.3333c0 0.7364 0.597 1.3334 1.3333 1.3334h18.1144l-5.7238 5.7238c-0.5207 0.5207-0.5207 1.3649 0 1.8856s1.3649 0.5207 1.8856 0z" />
        </symbol>
        <symbol id="menu" viewBox="0 0 24 24" fill="none">
            <path stroke-width="2" stroke="currentColor" stroke-linecap="round" stroke-linejoin="round" d="M4 7h16M4 12h16M4 17h16" />
        </symbol>
        <symbol id="logo" viewBox="0 0 23 23" fill="var(--color1, #a452fa)">
            <path d="M11.0204 5.5066c0 3.0412-2.467 5.5066-5.5102 5.5066H0V5.5066C0 2.4654 2.467 0 5.5102 0s5.5102 2.4654 5.5102 5.5066z" />
            <path d="M11.0205 16.5198c0-3.0412 2.467-5.5066 5.5102-5.5066h5.5102v5.5066c0 3.0412-2.467 5.5065-5.5102 5.5065s-5.5102-2.4653-5.5102-5.5065z" />
            <path d="M0 16.5198c0 3.0412 2.467 5.5065 5.5102 5.5065h5.5102v-5.5065c0-3.0412-2.467-5.5066-5.5102-5.5066S0 13.4786 0 16.5198z" />
            <path d="M22.0409 5.5066C22.0409 2.4654 19.5739 0 16.5307 0h-5.5102v5.5066c0 3.0412 2.467 5.5066 5.5102 5.5066s5.5102-2.4654 5.5102-5.5066z" />
        </symbol>
        <symbol id="linkedin" viewBox="0 0 12 12" fill="none">
            <path fill="var(--color0, #f8fafb)" d="M1.5 2.1602c0-0.3545 0.2979-0.6421 0.6652-0.6421l7.6696 0c0.3674 0 0.6652 0.2876 0.6652 0.6421v7.6799c0 0.3545-0.2978 0.642-0.6652 0.642H2.1652C1.798 10.4821 1.5 10.1946 1.5 9.8402V2.1601z" />
            <path fill="var(--color1, #a452fa)" d="M4.2352 9.0197l0-4.0357-1.3467 0 0 4.0357 1.3469 0zM3.5621 4.4331c0.4696 0 0.7619-0.3099 0.7619-0.6972-88e-4-0.3961-0.2923-0.6973-0.7529-0.6973-0.461 0-0.762 0.3012-0.762 0.6973 0 0.3873 0.2922 0.6971 0.7442 0.6971l87e-4 0zM4.9807 9.0197l1.3466 0 0-2.2535c0-0.1205 88e-4-0.2412 0.0444-0.3273 0.0973-0.241 0.3189-0.4906 0.691-0.4906 0.4872 0 0.6822 0.3701 0.6822 0.9126l0 2.1588 1.3467 0 0-2.314c0-1.2395-0.6643-1.8163-1.5504-1.8163-0.7264 0-1.0455 0.4044-1.2227 0.6798l89e-4 0 0-0.5851-1.3467 0c0.0176 0.3786-1e-4 4.0357-1e-4 4.0357z" />
        </symbol>
        <symbol id="left-arrow" viewBox="0 0 24 19" fill="none">
            <path fill="var(--color0, #f8fafb)" d="M0.3905 10.2761c-0.5207-0.5207-0.5207-1.3649 0-1.8856l8-8c0.5207-0.5207 1.3649-0.5207 1.8856 0 0.5207 0.5207 0.5207 1.3649 0 1.8856L4.5523 8h18.1144C23.403 8 24 8.597 24 9.3333c0 0.7364-0.597 1.3334-1.3333 1.3334H4.5523l5.7238 5.7238c0.5207 0.5207 0.5207 1.3649 0 1.8856-0.5207 0.5207-1.3649 0.5207-1.8856 0z" />
        </symbol>
        <symbol id="instagram" viewBox="0 0 12 12" fill="none">
            <path fill="var(--color0, #f8fafb)" d="M1.8359 5.435c0-1.2602 0-1.8902 0.2453-2.3715 0.2157-0.4234 0.5599-0.7676 0.9833-0.9833C3.5458 1.835 4.1758 1.835 5.4359 1.835l1.135 0c1.2602 0 1.8902 0 2.3715 0.2452C9.3658 2.2959 9.71 2.6401 9.9257 3.0635c0.2452 0.4813 0.2452 1.1113 0.2452 2.3715V6.57c0 1.2601 0 1.8901-0.2452 2.3714C9.71 9.3648 9.3658 9.709 8.9424 9.9247 8.4611 10.17 7.8311 10.17 6.5709 10.17h-1.135c-1.2601 0-1.8901 0-2.3714-0.2453C2.6411 9.709 2.2969 9.3648 2.0812 8.9414 1.8359 8.4601 1.8359 7.8301 1.8359 6.57z" />
            <path fill="var(--color1, #a452fa)" d="M6.0004 3.0833c-0.7921 0-0.8915 34e-4-1.2026 0.0176-0.3105 0.0142-0.5225 0.0634-0.7079 0.1355C3.898 3.3109 3.7353 3.4105 3.5732 3.5727 3.411 3.7348 3.3113 3.8976 3.2366 4.0893 3.1643 4.2748 3.115 4.4868 3.1011 4.7972 3.0871 5.1083 3.0835 5.2078 3.0835 5.9999c0 0.7921 35e-4 0.8912 0.0176 1.2024 0.0143 0.3105 0.0635 0.5224 0.1355 0.7078C3.3112 8.102 3.4108 8.2647 3.573 8.4268 3.7351 8.5891 3.8978 8.689 4.0895 8.7635 4.2751 8.8356 4.4871 8.8848 4.7975 8.899 5.1087 8.9131 5.208 8.9166 6.0001 8.9166c0.7922 0 0.8913-35e-4 1.2024-0.0176 0.3105-0.0143 0.5227-0.0634 0.7082-0.1355C8.1025 8.689 8.265 8.5891 8.4271 8.4268 8.5893 8.2647 8.689 8.102 8.7637 7.9102 8.8354 7.7247 8.8846 7.5127 8.8992 7.2023 8.9132 6.8912 8.9168 6.792 8.9168 5.9999c0-0.7921-36e-4-0.8915-0.0176-1.2026-0.0146-0.3105-0.0638-0.5225-0.1355-0.7079C8.689 3.8976 8.5893 3.7348 8.4271 3.5727 8.2648 3.4105 8.1026 3.3108 7.9106 3.2364c-0.186-0.0722-0.398-0.1213-0.7085-0.1355-0.3112-0.0142-0.4102-0.0177-1.2026-0.0177zM5.7388 3.6089c0.0776-2e-4 0.1643 0 0.2616 0 0.7788 0 0.8711 27e-4 1.1786 0.0167 0.2844 0.013 0.4387 0.0605 0.5416 0.1005 0.1361 0.0528 0.2331 0.116 0.3351 0.2181C8.1578 4.0463 8.221 4.1435 8.274 4.2796 8.3139 4.3823 8.3615 4.5367 8.3745 4.821c0.0139 0.3075 0.017 0.3999 0.017 1.1782 0 0.7784-31e-4 0.8708-0.0171 1.1783-0.013 0.2843-0.0605 0.4387-0.1004 0.5414-0.0529 0.1361-0.1162 0.233-0.2183 0.335-0.1021 0.1021-0.199 0.1653-0.3351 0.2182C7.6179 8.3122 7.4634 8.3596 7.179 8.3726c-0.3074 0.0139-0.3998 0.017-1.1786 0.017-0.7788 0-0.8711-31e-4-1.1785-0.017C4.5375 8.3594 4.3831 8.3119 4.2803 8.272 4.1441 8.2191 4.0469 8.1559 3.9448 8.0539 3.8428 7.9518 3.7796 7.8548 3.7266 7.7186c-0.04-0.1027-0.0875-0.257-0.1005-0.5414-0.014-0.3075-0.0168-0.3998-0.0168-1.1787 0-0.7789 28e-4-0.8707 0.0168-1.1782 0.013-0.2844 0.0605-0.4387 0.1005-0.5415 0.0528-0.1361 0.1161-0.2333 0.2182-0.3354 0.1021-0.1021 0.1993-0.1653 0.3354-0.2183 0.1029-0.0401 0.2573-0.0875 0.5416-0.1006 0.2691-0.0121 0.3734-0.0158 0.917-0.0164zM7.5574 4.0931c-0.1933 0-0.3501 0.1566-0.3501 0.3499 0 0.1933 0.1568 0.35 0.35 0.35 0.1933 0 0.3501-0.1567 0.3501-0.35 0-0.1932-0.1568-0.35-0.3501-0.35zM6.0004 4.5021c-0.8271 0-1.4978 0.6706-1.4978 1.4978 0 0.8272 0.6707 1.4975 1.4978 1.4975 0.8272 0 1.4976-0.6703 1.4976-1.4975 0-0.8272-0.6704-1.4978-1.4976-1.4978zM6.0004 5.0277c0.537 0 0.9723 0.4352 0.9723 0.9722 0 0.5369-0.4353 0.9722-0.9723 0.9722-0.5369 0-0.9722-0.4353-0.9722-0.9722 0-0.5369 0.4353-0.9722 0.9722-0.9722z" />
        </symbol>
        <symbol id="facebook" viewBox="0 0 12 12" fill="none">
            <path fill="var(--color0, #f8fafb)" d="M11 6c0-2.7612-2.2388-5-5-5S1 3.2388 1 6c0 2.4954 1.8282 4.5641 4.2188 4.9395l0-3.4939-1.2698 0 0-1.4456h1.2698l0-1.1018c0-1.253 0.7468-1.9456 1.8886-1.9456 0.5471 0 1.1194 0.0977 1.1194 0.0977l0 1.2305-0.6307 0c-0.6209 0-0.8149 0.3853-0.8149 0.7812l0 0.938h1.3866L7.9463 7.4457l-1.1651-1e-4 0 3.4939C9.1718 10.5648 11 8.4961 11 6z" />
            <path fill="var(--color1, #a452fa)" d="M7.9466 7.4457 8.168 6 6.7815 6l0-0.9379c0-0.3952 0.1933-0.7812 0.8149-0.7812l0.6307 0V3.0504c0 0-0.5724-0.0978-1.1194-0.0978-1.1419 0-1.8886 0.6919-1.8886 1.9456l0 1.1018-1.2699 0 0 1.4457 1.2699 0 0 3.4939C5.4736 10.9796 5.7345 11 6.0003 11c0.2657 0 0.5266-0.0211 0.7812-0.0604l0-3.4939z" />
        </symbol>
        <symbol id="arrow-services" viewBox="0 0 14 14" fill="none">
            <path fill="var(--color0, #f8fafb)" d="M13 0c0.5523 0 1 0.4477 1 1v8.4853c0 0.5523-0.4477 1-1 1s-1-0.4477-1-1V3.4142L1.7071 13.7071c-0.3905 0.3905-1.0237 0.3905-1.4142 0-0.3905-0.3905-0.3905-1.0237 0-1.4142L10.5858 2H4.5147c-0.5523 0-1-0.4477-1-1 0-0.5523 0.4477-1 1-1z" />
        </symbol>
        <symbol id="arrow-hero" viewBox="0 0 14 14" fill="none">
            <path fill="var(--color0, #f8fafb)" d="M13 0c0.5523 0 1 0.4477 1 1v8.4853c0 0.5523-0.4477 1-1 1s-1-0.4477-1-1V3.4142L1.7071 13.7071c-0.3905 0.3905-1.0237 0.3905-1.4142 0-0.3905-0.3905-0.3905-1.0237 0-1.4142L10.5858 2H4.5147c-0.5523 0-1-0.4477-1-1 0-0.5523 0.4477-1 1-1z" />
        </symbol>
        <symbol id="arrow" viewBox="0 0 10 10" fill="none">
            <path fill="var(--color0, #f8fafb)" d="M8.6667 0c0.3682 0 0.6666 0.2985 0.6666 0.6667l0 5.6568c0 0.3682-0.2984 0.6667-0.6666 0.6667C8.2985 6.9902 8 6.6917 8 6.3235V2.2761l-6.8619 6.862c-0.2604 0.2603-0.6825 0.2603-0.9428 0-0.2604-0.2604-0.2604-0.6825 0-0.9428l6.8619-6.862-4.0474 0c-0.3682 0-0.6666-0.2984-0.6666-0.6666C2.3432 0.2985 2.6416 0 3.0098 0z" />
        </symbol>
            <symbol id="stripe" viewBox="0 0 66 28" fill="var(--color2, #bd81ff)" clip-rule="evenodd" fill-rule="evenodd">
            <path d="M65.9229 14.1735c0-4.6879-2.2707-8.3869-6.6106-8.3869-4.3582 0-6.9951 3.699-6.9951 8.3502 0 5.5119 3.113 8.2953 7.5811 8.2953 2.1791 0 3.8272-0.4944 5.0724-1.1903v-3.6623c-1.2452 0.6226-2.6735 1.0071-4.4864 1.0071-1.7763 0-3.3511-0.6226-3.5525-2.7834h8.9545c0-0.238 0.0366-1.1903 0.0366-1.6297zM56.8768 12.4338c0-2.0692 1.2636-2.9299 2.4172-2.9299 1.117 0 2.3073 0.8607 2.3073 2.9299z" />
            <path d="M45.2486 5.7866c-1.7945 0-2.9482 0.8423-3.5891 1.4283l-0.238-1.1353-4.0287 0v21.3516l4.578-0.9705 0.0183-5.1822c0.6593 0.4761 1.6298 1.1536 3.2412 1.1536 3.2779 0 6.2627-2.6369 6.2627-8.4418-0.0183-5.3104-3.0398-8.2037-6.2444-8.2037zM44.1499 18.4035c-1.0804 0-1.7213-0.3846-2.1608-0.8607l-0.0183-6.7937c0.4761-0.531 1.1354-0.8973 2.1791-0.8973 1.6664 0 2.8201 1.8678 2.8201 4.2667 0 2.4538-1.1354 4.285-2.8201 4.285z" />
            <path d="M31.0935 4.7062l4.5962-0.9889V0l-4.5962 0.9705z" />
            <path d="M35.6897 6.0979l-4.5962 0v16.0229h4.5962z" fill-rule="nonzero" />
            <path d="M26.1674 7.453l-0.293-1.3551-3.9554 0v16.0229h4.578v-10.859c1.0804-1.41 2.9116-1.1536 3.4792-0.9522V6.0979c-0.5859-0.2198-2.7284-0.6226-3.8088 1.3551z" />
            <path d="M17.0116 2.1242 12.5435 3.0764 12.5252 17.7442c0 2.7102 2.0326 4.7062 4.7427 4.7062 1.5016 0 2.6003-0.2747 3.2046-0.6043v-3.7173c-0.586 0.238-3.4792 1.0804-3.4792-1.6298V9.9983l3.4792 0V6.0978l-3.4792 0z" />
            <path d="M4.6329 10.7491c0-0.7141 0.586-0.9888 1.5565-0.9888 1.3917 0 3.1497 0.4212 4.5414 1.1719V6.629C9.2109 6.0247 7.7093 5.7866 6.1894 5.7866 2.4721 5.7866 0 7.7277 0 10.9689c0 5.0541 6.9585 4.2483 6.9585 6.4274 0 0.8424-0.7325 1.1171-1.7579 1.1171-1.5199 0-3.461-0.6226-4.9992-1.465l0 4.3583c1.703 0.7324 3.4244 1.0437 4.9992 1.0437 3.8088 0 6.4275-1.8861 6.4275-5.1639-0.0184-5.457-6.9952-4.4864-6.9952-6.5374z" />
        </symbol>
        <symbol id="linear" viewBox="0 0 123 32" fill="none">
            <path fill="var(--color2, #bd81ff)" clip-rule="evenodd" d="M15.7824 0c-4.7921 0-9.086 2.1326-11.9845 5.5005L26.087 27.7896c3.3679-2.8985 5.5005-7.1924 5.5005-11.9844C31.5875 7.0762 24.5113 0 15.7824 0zM1.2518 9.577 22.0106 30.3359c0.7561-0.3246 1.4817-0.7063 2.1715-1.1399L2.3916 7.4055C1.958 8.0952 1.5762 8.8209 1.2518 9.577zM16.6393 31.5875 0 14.9482c0.0529-0.9896 0.1968-1.9549 0.4235-2.8879L19.5272 31.164c-0.9329 0.2267-1.8983 0.3706-2.8879 0.4235zM0.1989 18.4585 13.129 31.3886C6.526 30.2725 1.315 25.0615 0.1989 18.4585zM59.6353 25.2699H48.0546V7.1789l3.8249 0v14.9374h7.7558zM65.8608 25.2699h-3.7632V11.7017h3.7632zM66.0286 8.1859c0 1.0777-0.9451 1.9081-2.0406 1.9081-1.0865 0-2.0316-0.8304-2.0316-1.9081 0-1.0688 0.9451-1.8992 2.0316-1.8992 1.0955 0 2.0406 0.8304 2.0406 1.8992zM75.2088 14.6521c-1.5194 0-2.5618 1.0247-2.5705 2.7737v7.8441h-3.7632V11.7017h3.5865v2.3939h0.159c0.6095-1.5812 2.067-2.5706 4.0811-2.5706 2.8268 0 4.6818 1.9434 4.6818 5.1058v8.6391h-3.7631v-7.9678c88e-4-1.6607-0.901-2.65-2.4116-2.65zM96.7162 21.3832c-0.5299 2.5175-2.7825 4.1518-6.1481 4.1518-4.1694 0-6.7223-2.6854-6.7223-6.9874 0-4.187 2.5882-7.0226 6.5809-7.0226 3.5864 0 6.3778 2.279 6.3778 6.8901v1.0336h-9.2398v88e-4c0 2.0229 1.1924 3.2684 3.074 3.2684 1.2455 0 2.226-0.5388 2.6059-1.5724zM90.4886 14.3341c-1.6695 0-2.8532 1.2366-2.9239 2.7825h5.6976c-0.0177-1.6165-1.1484-2.7825-2.7737-2.7825zM107.149 23.3884c-0.663 1.2633-1.962 2.1378-3.967 2.1378-2.588 0-4.5048-1.3604-4.5048-4.0458 0-3.0299 2.4118-3.9309 5.0968-4.1783 2.359-0.2297 3.295-0.3622 3.286-1.2543-9e-3-1.1396-0.715-1.7756-2.014-1.7756-1.351 0-2.155 0.6625-2.411 1.5636l-3.4807-0.2827c0.5211-2.4734 2.6327-4.0281 5.9717-4.0281 2.932 0 5.697 1.3604 5.697 4.5934v9.1515h-3.568v-1.8815zM102.273 21.3567c0 1.0335 0.83 1.5724 1.987 1.5724 1.652 0 2.827-1.0865 2.827-2.5087v-1.4399c-0.451 0.3003-1.794 0.4947-2.615 0.6095-1.325 0.1854-2.199 0.7067-2.199 1.7667zM117.506 25.2699h-3.763V11.7017h3.648v2.3674h0.141c0.495-1.6784 1.732-2.5618 3.26-2.5618 0.724 0 1.36 0.1944 1.855 0.4947l-1.131 3.1094c-0.353-0.1767-0.768-0.318-1.281-0.318-1.519 0-2.72 1.1395-2.729 2.8002z" fill-rule="evenodd" />
        </symbol>
        <symbol id="intercom" viewBox="0 0 139 35" fill="var(--color2, #bd81ff)" clip-rule="evenodd" fill-rule="evenodd">
            <path d="M48.3813 22.5833c0 0.5918-0.4338 1.0783-1.0511 1.0783-0.6004 0-1.0343-0.4876-1.0343-1.0783v-10.282c0-0.5919 0.4339-1.0784 1.0511-1.0784 0.6005 0 1.0343 0.4876 1.0343 1.0784z" />
            <path d="M61.8606 12.3013v9.3953c0 1.2701-0.6503 1.9839-1.6846 1.9839h-0.0829c-0.984 0-1.4518-0.5919-1.8685-1.4619l-2.1021-4.2627-1.8685-4.4011 0.0502 4.2626 0.0168 4.7492c0 0.5918-0.4334 1.0784-1.0511 1.0784-0.6005 0-1.0339-0.4877-1.0339-1.0784v-9.3953c0-1.166 0.6503-1.9839 1.7852-1.9839h0.0833c1.0511 0 1.4845 0.5919 1.902 1.4619l2.0682 4.2282 1.7685 4.1064-0.0498-3.9324-0.0168-4.7491c0-0.5919 0.4334-1.0784 1.0511-1.0784 0.5991-12e-4 1.0329 0.4854 1.0329 1.0773z" />
            <path d="M70.2194 22.5667c0 0.5918-0.4333 1.0783-1.0511 1.0783-0.6 0-1.0338-0.4876-1.0338-1.0783v-9.3078h-2.5859c-0.5334 0-0.9668-0.4178-0.9668-1.0263 0-0.5919 0.4334-1.0086 0.9668-1.0086h7.2567c0.5334 0 0.9673 0.4178 0.9673 1.0263 0 0.5919-0.4339 1.0086-0.9673 1.0086h-2.5859z" />
            <path d="M76.492 22.2187V12.563c0-0.9045 0.4836-1.4087 1.3681-1.3744h6.0058c0.5335 0 0.9668 0.4345 0.9668 1.0263 0 0.5919-0.4333 1.0086-0.9668 1.0086h-5.3057v2.9925h4.688c0.5176 0 0.9342 0.4001 0.9342 0.9742s-0.4166 0.9742-0.9342 0.9742h-4.688v3.4447h5.3057c0.5335 0 0.9668 0.4345 0.9668 1.0264 0 0.5918-0.4333 1.0085-0.9668 1.0085h-6.0561c-0.8672 11e-4-1.3504-0.5032-1.3178-1.4253z" />
            <path d="M96.1949 23.6972c0.5838-0.3137 0.7676-0.9576 0.4837-1.4619l-2.0855-3.8614c1.7187-0.348 2.72-1.6703 2.72-3.4624 0-1.8786-1.134-3.7229-3.8539-3.7229h-3.9535c-0.884-0.0343-1.3676 0.4699-1.3676 1.3744v10.0215c0 0.5907 0.4333 1.0783 1.0338 1.0783 0.6178 0 1.0511-0.4865 1.0511-1.0783l-0.0167-3.7928h2.2018l2.3191 4.471c0.2826 0.5043 0.9003 0.7305 1.4677 0.4345zM93.5081 16.8245h-3.3032v-3.6021h3.2864c1.1009 0 1.7186 0.7304 1.7186 1.7922 0 1.0617-0.5837 1.8099-1.7018 1.8099z" />
            <path d="M101.616 22.7229c-1.251-1.1659-1.8181-2.9925-1.8181-5.2889 0-2.3142 0.5511-4.123 1.7861-5.2713 0.767-0.696 1.801-1.1659 3.303-1.1659 1.318 0 2.336 0.3137 3.103 0.9919 0.667 0.5565 1.151 1.34 1.434 2.4362 0.15 0.5741-0.233 1.1482-0.867 1.2701-0.6 0.1042-1.084-0.2959-1.267-0.87-0.201-0.5564-0.468-0.9565-0.785-1.2358-0.434-0.4001-0.967-0.5741-1.669-0.5741-0.75 0-1.401 0.2261-1.885 0.7303-0.7 0.7305-1.001 2.0361-1.001 3.6886 0 1.6358 0.284 2.9404 1.018 3.6708 0.484 0.5042 1.118 0.7303 1.852 0.7303 0.767 0 1.351-0.2083 1.835-0.6782 0.25-0.2439 0.468-0.5564 0.617-0.9222 0.217-0.5397 0.668-0.9398 1.251-0.8002 0.584 0.1397 0.952 0.7304 0.768 1.3045-0.301 0.9565-0.818 1.7224-1.518 2.2444-0.767 0.5741-1.718 0.87-2.919 0.87-1.535 0-2.503-0.4699-3.238-1.1305z" />
            <path d="M116.932 10.9968c-3.621 0-5.156 2.5403-5.156 6.4372 0 4.0188 1.519 6.4371 5.156 6.4371 3.57 0 5.138-2.4183 5.138-6.4371 0-3.9667-1.551-6.4372-5.138-6.4372zM116.915 13.0328c1.985 0 3.019 1.4431 3.019 4.4012 0 2.957-1.051 4.4011-3.019 4.4011-1.985 0-2.987-1.443-2.987-4.4011 0-2.957 1.035-4.4012 2.987-4.4012z" />
            <path d="M138.253 22.5666c0 0.5919-0.434 1.0784-1.051 1.0784-0.601 0-1.035-0.4877-1.035-1.0784v-4.6627l0.051-4.5409-1.452 4.6107-1.468 4.5408c-0.249 0.8002-0.767 1.1139-1.418 1.1139-0.684 0-1.185-0.3303-1.451-1.1305l-1.502-4.5231-1.385-4.5408 0.05 4.471v4.6627c0 0.5919-0.434 1.0784-1.051 1.0784-0.601 0-1.034-0.4876-1.034-1.0784V13.26c0-1.2879 0.667-2.036 1.835-2.036 1.101 0 1.719 0.6084 2.068 1.7223l1.535 4.7492 0.934 3.2363 0.951-3.2363 1.535-4.7492c0.351-1.1139 0.951-1.7223 2.052-1.7223 1.168 0 1.819 0.7303 1.819 2.036z" />
            <path d="M29.4578 19.2116c0 0.3112-0.1192 0.6096-0.3314 0.8297s-0.5 0.3437-0.8001 0.3437-0.5879-0.1236-0.8002-0.3437c-0.2122-0.2201-0.3314-0.5185-0.3314-0.8297V8.7282c0-0.3112 0.1192-0.6097 0.3314-0.8298 0.2123-0.2201 0.5001-0.3437 0.8002-0.3437 0.3001 0 0.5879 0.1236 0.8001 0.3437 0.2122 0.2201 0.3314 0.5186 0.3314 0.8298zM29.0651 26.4753c-0.1497 0.1552-4.3579 3.7919-12.0731 3.7919-7.7151 0-11.8953-3.6174-12.073-3.7725-0.112-0.0979-0.2042-0.2178-0.2714-0.3527-0.0672-0.135-0.1081-0.2824-0.1203-0.4337-0.0121-0.1514 46e-4-0.3038 0.0494-0.4484 0.0447-0.1446 0.1165-0.2787 0.2114-0.3945 0.1953-0.2343 0.472-0.3791 0.7698-0.4027s0.5926 0.0759 0.8199 0.2767c0.0655 0.0484 3.8249 3.2099 10.6049 3.2099 6.7799 0 10.5674-3.1808 10.6048-3.2099 0.2299-0.199 0.5256-0.2972 0.8242-0.2737 0.2987 0.0236 0.5767 0.167 0.7749 0.3997 0.1908 0.2309 0.2861 0.5305 0.265 0.8337-0.021 0.3033-0.1565 0.5857-0.3772 0.7859zM4.5169 8.7282C4.5338 8.416 4.6692 8.1234 4.8935 7.9144 5.1178 7.7054 5.4128 7.597 5.7139 7.6129 5.9931 7.6293 6.2565 7.7524 6.4533 7.9584 6.6502 8.1643 6.7666 8.4385 6.78 8.7282l0 10.464c0 0.3112-0.1192 0.6097-0.3315 0.8297-0.2121 0.2201-0.5 0.3437-0.8001 0.3437-0.3001 0-0.5879-0.1236-0.8001-0.3437-0.2122-0.22-0.3314-0.5185-0.3314-0.8297zM10.1933 6.4007c0.017-0.3122 0.1523-0.6048 0.3767-0.8138 0.2242-0.2089 0.5192-0.3174 0.8204-0.3015 0.2791 0.0164 0.5425 0.1395 0.7394 0.3455 0.1969 0.2059 0.3132 0.4801 0.3266 0.7698v15.5166c0 0.3112-0.1192 0.6096-0.3313 0.8297-0.2123 0.2201-0.5001 0.3437-0.8002 0.3437s-0.5879-0.1236-0.8001-0.3437c-0.2123-0.2201-0.3315-0.5185-0.3315-0.8297zM15.8979 5.8188c0-0.3112 0.1192-0.6097 0.3314-0.8297 0.2122-0.2201 0.5-0.3438 0.8001-0.3438 0.3001 0 0.588 0.1237 0.8001 0.3438 0.2123 0.22 0.3315 0.5185 0.3315 0.8297v16.8743c0 0.3112-0.1192 0.6097-0.3315 0.8297-0.2121 0.2201-0.5 0.3438-0.8001 0.3438s-0.5879-0.1237-0.8001-0.3438c-0.2122-0.22-0.3314-0.5185-0.3314-0.8297zM21.5089 6.4007c0-0.3112 0.1192-0.6097 0.3314-0.8298 0.2122-0.22 0.5001-0.3437 0.8002-0.3437 0.3001 0 0.5879 0.1237 0.8001 0.3438 0.2122 0.22 0.3314 0.5185 0.3314 0.8297v15.5166c0 0.3112-0.1192 0.6096-0.3314 0.8297s-0.5 0.3437-0.8001 0.3437-0.588-0.1236-0.8002-0.3437-0.3314-0.5185-0.3314-0.8297zM29.7664 1e-4 4.255 1e-4c-0.5559-39e-4-1.107 0.106-1.6219 0.3234-0.5148 0.2174-0.9833 0.5379-1.3785 0.9433-0.3953 0.4054-0.7095 0.8876-0.9248 1.4191C0.1145 3.2173 25e-4 3.7877 0 4.3641v26.1843c25e-4 0.5764 0.1145 1.1468 0.3298 1.6782 0.2153 0.5315 0.5295 1.0137 0.9248 1.4191 0.3952 0.4054 0.8637 0.7259 1.3785 0.9433 0.5149 0.2174 1.066 0.3271 1.6219 0.3234h25.5114c0.5551 37e-4 1.1055-0.1057 1.6198-0.3225 0.5142-0.2167 0.9823-0.5364 1.3774-0.9408 0.3951-0.4043 0.7095-0.8854 0.9254-1.4157 0.2158-0.5304 0.3288-1.0997 0.3325-1.6753V4.3641c-25e-4-0.5756-0.1143-1.1451-0.329-1.676-0.2146-0.5308-0.5281-1.0126-0.9223-1.4179-0.3943-0.4052-0.8616-0.7259-1.3754-0.9439-0.5138-0.2179-1.0639-0.3288-1.619-0.3262" fill-rule="nonzero" />
        </symbol>
        <symbol id="evernote" viewBox="0 0 136 30" fill="none">
            <path fill="var(--color2, #bd81ff)" clip-rule="evenodd" d="M7.6891 7.8379c0.2976-0.3225 0.3224-0.8185 0.3224-1.1162l0-3.2988c0-0.9178 0-1.4634 0.0496-1.8355 0.0248-0.1984 0.124-0.4464 0.1736-0.5705 0.0248-0.0496 0-0.0496-0.0248-0.0248L0.9673 8.3588C0.9425 8.3836 0.9425 8.4084 0.9921 8.3836 1.1162 8.334 1.3642 8.2347 1.5626 8.2099 1.9347 8.1603 2.4803 8.1603 3.3981 8.1603l3.1748 0c0.2976 0 0.7937-0.0248 1.1162-0.3224zM13.2946 27.2838c0.1737 0.4464 0.6201 1.1657 1.4634 1.7114 0.6697 0.4713 1.6867 0.9177 3.0509 0.9177 0 0 6.3496 0.3721 7.4162-7.2674 0.0744 0 0.9921-7.8379-0.5209-15.9238-0.5885-3.1012-3.4496-3.558-4.982-3.8027-0.1466-0.0235-0.2812-0.0449-0.4003-0.0666-1.4386-0.248-4.291-0.7441-4.291-0.7441 0 0-0.3225-1.5378-1.8355-1.9099-0.0527-0.0132-0.1015-0.0256-0.1473-0.0372-0.2126-0.054-0.3591-0.0912-0.5224-0.1116C12.2529 0.0248 11.9552 0 11.7072 0h-0.5953C9.8966 0 9.0781 0.7689 8.954 1.6866l0 0.1488 0 5.0848c0 0.6696-0.0992 1.2401-0.5208 1.637-0.3225 0.2976-0.8186 0.5209-1.6867 0.5209l-4.9111 0-0.1488 0C0.7441 9.2021 0 10.0206 0 11.236c12e-4 0.0141 24e-4 0.0282 35e-4 0.0425 0.0238 0.2859 0.0496 0.5975 0.1205 0.9992 0.1383 0.9283 0.3552 1.9038 0.5129 2.6134 0.0404 0.1815 0.0769 0.3456 0.1072 0.487 0.6449 2.8524 1.8851 3.8694 1.8851 3.8694 1.8354 1.885 4.4894 2.6787 6.9945 2.5299 0.0744 0 0.3225-0.0248 0.5457-0.0744 0.2232-0.0496 0.4217-0.124 0.5705-0.1984 1.5378-0.9426 2.3067-4.415 2.3067-4.415 0.1736 2.3067 2.778 3.1252 3.8197 3.2492 0.0248 0 0.3721 0.0496 0.7441 0.124 0.0297 74e-4 0.0596 0.0149 0.0896 0.0223 0.2711 0.0672 0.5503 0.1364 0.7289 0.2258 1.3394 0.5952 2.3564 1.9346 2.3564 3.4476 0 1.6867-1.3642 3.0509-3.0509 3.0509-0.6448 0-1.2401-0.2481-1.6866-0.6945-0.248-0.2481-0.3968-0.5953-0.3968-0.9674 0-0.3472 0.1984-0.6697 0.4464-0.8681 0.1911-0.1699 0.564-0.2307 0.7452-0.2602 0.0304-5e-3 0.0555-91e-4 0.0733-0.0126 0.1241-0.0248 0.2977-0.0744 0.4217-0.1488 0.3472-0.1985 0.5705-0.5457 0.5705-0.9674 0-0.6201-0.4961-1.1161-1.1162-1.1161-2.0835 0-3.7701 1.6866-3.7701 3.7453 0 0.4712 0.0992 0.9425 0.2728 1.3642zM18.7018 13.6171c0.248-0.6201 0.9425-0.9425 1.761-0.8681 0.8185 0.0992 1.4138 0.5704 1.513 1.2649 0 0.031 16e-4 0.0636 31e-4 0.0961 47e-4 0.0977 93e-4 0.1954-0.0279 0.2512-0.0496 0.0744-0.0992 0.0992-0.1488 0.0992-0.3224 0.0496-0.8185 0-1.5378-0.0744s-1.2154-0.1488-1.513-0.2977c-0.0496-0.0248-0.0992-0.0496-0.124-0.124s0.0248-0.2232 0.0744-0.3472zM33.7073 20.9344 32.864 21.108l0.0248 0.6945h13.9147l0.3473-5.8288h-0.7937c-0.6449 1.5626-1.1162 2.6044-1.5626 3.2741-0.8186 1.2153-1.2154 1.4634-3.1997 1.4634-2.4059 0-2.4803-0.2481-2.4803-2.4556v-4.7622h0.6697c1.8106 0 2.1331 0.124 2.4307 0.7441 0.3472 0.7193 0.5457 1.2153 0.7689 1.9842h0.7441V9.8225l-0.7441 0c-0.2232 0.7937-0.4217 1.2649-0.7689 1.885-0.2976 0.5457-0.6945 0.7441-2.4307 0.7441h-0.6697V6.1267c0.372-0.0992 0.9921-0.248 2.2571-0.248 1.7114 0 2.2323 0.0992 3.026 1.2402 0.372 0.5457 0.7689 1.265 1.389 2.6291l0.7689 0-0.248-4.9358-13.4435 0v0.6944l0.8433 0.1737c0.7193 0.1736 0.9426 0.2976 0.9426 1.7858v11.6824c0 1.4882-0.1985 1.5875-0.9426 1.7859zM47.7709 9.8721c0.62 0.1984 0.8929 0.5456 1.4634 1.9346l4.0429 9.9958h2.0835l3.7949-9.7229c0.5953-1.6123 0.8682-1.9843 1.513-2.2075l0.4713-0.1489V9.0784l-4.539 0v0.6448l0.6697 0.1737c0.5208 0.124 0.7689 0.3968 0.7689 0.9425 0 0.3472-0.0992 0.7689-0.3225 1.3642l-1.9842 5.6552h-0.1241l-2.0586-5.6552c-0.1985-0.5457-0.3225-0.9674-0.3225-1.3146 0-0.5953 0.2481-0.8433 0.7689-0.9921l0.6697-0.1737V9.0784l-7.3666 0v0.6448zM66.9687 8.7559c-3.2492 0-6.3993 2.3563-6.3993 6.6225 0 4.167 2.1083 6.6969 6.3745 6.7466 2.4556 0 4.3158-1.2898 5.1839-2.2324v-0.8185c-0.9177 0.4713-2.0835 0.9178-3.5965 0.9178-2.5299 0-4.0429-1.0914-4.1173-5.1096h8.1107c-0.0744-4.4398-2.1827-6.1264-5.556-6.1264zM68.6057 13.7166 64.414 13.9398c0.0992-3.0756 1.0913-4.2662 2.3315-4.2662 1.4634 0 1.8602 1.0914 1.8602 4.043zM82.7189 8.6815c-1.637 0-3.0508 1.2154-3.7453 1.9595l-0.0744-0.0248 0.0496-1.6867-0.2729-0.1984-5.1591 0.5953v0.4961l0.8185 0.5456 0.0192 0.013c0.6776 0.4597 0.7993 0.5423 0.7993 1.5744v7.6147c0 1.0417-0.0992 1.1658-0.9177 1.389l-0.6449 0.1736v0.6697h7.069v-0.6697l-0.8185-0.1736c-0.7441-0.124-0.8433-0.248-0.8433-1.389v-7.9371c0.3224-0.2976 0.8433-0.6201 1.2898-0.6201 0.2232 0 0.5456 0.0744 0.6945 0.3473 0.2728 0.6697 0.9673 1.1409 1.7362 1.1409 1.0665 0 1.9099-0.8433 1.9099-1.9098 0-1.0666-0.8682-1.9099-1.9099-1.9099zM86.0177 20.9592l-0.6448 0.1736h0.0496v0.6697h6.8209v-0.6697l-0.5953-0.1488c-0.7441-0.1984-0.8185-0.248-0.8185-1.4138v-8.2347l93e-4-21e-4c0.5462-0.1242 1.4094-0.3204 2.2726-0.3204 1.141 0 1.6867 0.4713 1.6867 1.9595v6.5729c0 1.141-0.0745 1.2154-0.8186 1.4138l-0.5952 0.1488v0.6697h6.8206V21.108l-0.6446-0.1736c-0.7937-0.1984-0.8929-0.3225-0.8929-1.389v-7.5402c0-2.2075-1.1162-3.2741-3.1997-3.2741-1.7858 0-3.398 0.8185-4.6878 1.7362h-0.0992l0.0496-1.5626-0.2728-0.1736-5.1592 0.5953v0.4961l0.8186 0.5456 0.0191 0.013c0.6776 0.4597 0.7994 0.5423 0.7994 1.5744v7.6147c0 1.0417-0.0992 1.1658-0.9178 1.389zM107.299 8.7559c-3.299 0-6.622 2.0091-6.622 6.6969 0 4.4894 3.075 6.6225 6.622 6.6225 3.373 0 6.647-2.0586 6.647-6.7465 0-4.4398-3.1-6.5729-6.647-6.5729zM107.2 9.6984c1.687 0 2.629 0.9426 2.629 5.8784 0 4.6879-1.017 5.556-2.48 5.556-1.786 0-2.605-1.0913-2.605-6.1016 0-4.2166 0.918-5.3328 2.456-5.3328zM116.055 10.5169v8.1852c0 2.4059 1.19 3.3732 3.398 3.3732 2.058 0 3.274-0.8929 3.869-1.4386v-0.6945c-0.446 0.0993-1.166 0.2233-1.761 0.2233-1.215 0-1.587-0.4961-1.587-1.7115v-7.9371h2.926l0.323-1.4385-3.249 0V5.8043h-1.389c-0.695 1.9595-2.158 3.3733-4.068 4.1174v0.5952zM130.217 8.7559c-3.249 0-6.399 2.3563-6.399 6.6225 0 4.167 2.108 6.6969 6.399 6.7466 2.456 0 4.316-1.2898 5.184-2.2324v-0.8185c-0.917 0.4713-2.083 0.9178-3.596 0.9178-2.53 0-4.043-1.0914-4.118-5.1096h8.086c-0.074-4.4398-2.182-6.1264-5.556-6.1264zM131.854 13.7166l-4.191 0.2232c0.099-3.0756 1.091-4.2662 2.331-4.2662 1.464 0 1.86 1.0914 1.86 4.043z" fill-rule="evenodd" />
        </symbol>
        <symbol id="coinbase" viewBox="0 0 112 20" fill="none">
            <path fill="var(--color2, #bd81ff)" d="M22.5402 5.5697c-4.0571 0-7.2272 3.0798-7.2272 7.2028s3.09 7.1765 7.2272 7.1765 7.2809-3.1062 7.2809-7.2029c0-4.0703-3.09-7.1764-7.2809-7.1764zM22.5676 16.9776c-2.3104 0-4.0034-1.7943-4.0034-4.2041 0-2.4371 1.6656-4.2304 3.976-4.2304 2.3377 0 4.0297 1.8207 4.0297 4.2304 0 2.4098-1.692 4.2041-4.0023 4.2041zM30.7071 8.7032l2.0153 0v10.9792h3.2237V5.8373l-5.239 0zM7.1998 8.542c1.693 0 3.0362 1.0442 3.5462 2.5973h3.4123c-0.6184-3.3201-3.3586-5.5696-6.9311-5.5696C3.17 5.5697 0 8.6495 0 12.7735S3.09 19.95 7.2272 19.95c3.4924 0 6.2864-2.2495 6.9048-5.597h-3.386c-0.4836 1.5531-1.8269 2.6246-3.5198 2.6246-2.3378 0-3.9761-1.7943-3.9761-4.2041 11e-4-2.4371 1.613-4.2315 3.9497-4.2315zM91.9611 11.4343 89.597 11.0866c-1.1281-0.1602-1.9342-0.5353-1.9342-1.4193 0-0.9641 1.0483-1.4456 2.4716-1.4456 1.5583 0 2.5526 0.6691 2.7674 1.767l3.1166 0c-0.3498-2.7848-2.4991-4.418-5.803-4.418-3.4124 0-5.6689 1.7406-5.6689 4.2041 0 2.356 1.4779 3.7226 4.4595 4.1504l2.364 0.3477c1.1559 0.1601 1.8005 0.6163 1.8005 1.473 0 1.0979-1.1281 1.5531-2.6864 1.5531-1.908 0-2.9825-0.7766-3.1437-1.9546h-3.1701c0.2961 2.7048 2.418 4.6056 6.2864 4.6056 3.5199 0 5.8566-1.6068 5.8566-4.3653 0-2.4635-1.692-3.7489-4.3522-4.1504zM34.3342 0.1338c-1.182 0-2.0688 0.8567-2.0688 2.0347 0 1.178 0.8859 2.0346 2.0688 2.0346 1.1821 0 2.0692-0.8566 2.0692-2.0346 0-1.178-0.8871-2.0347-2.0692-2.0347zM81.645 10.5777c0-2.9988-1.8266-5.007-5.6954-5.007-3.6536 0-5.6954 1.8481-6.0988 4.6866h3.1973c0.1612-1.0979 1.0209-2.0083 2.8479-2.0083 1.6393 0 2.4451 0.7229 2.4451 1.6069 0 1.1516-1.4781 1.4456-3.3048 1.6332-2.4716 0.2676-5.5343 1.1242-5.5343 4.3379 0 2.4908 1.8541 4.0966 4.8095 4.0966 2.3102 0 3.7609-0.9641 4.4869-2.4908 0.1076 1.3656 1.1284 2.2496 2.5527 2.2496h1.8806v-2.865H81.646v-6.2397zM78.4749 14.059c0 1.8481-1.6119 3.2136-3.5736 3.2136-1.2091 0-2.23-0.5089-2.23-1.5794 0-1.3656 1.639-1.7407 3.1437-1.9008 1.4507-0.1338 2.2565-0.4552 2.6599-1.0716zM61.3615 5.5697c-1.8005 0-3.3048 0.7501-4.3793 2.0083V0h-3.2238v19.6824h3.1698v-1.8208c1.0745 1.3118 2.6066 2.0884 4.4333 2.0884 3.8684 0 6.7973-3.0525 6.7973-7.1765s-2.9825-7.2038-6.7973-7.2038zM60.878 16.9776c-2.3104 0-4.0034-1.7943-4.0034-4.2041 0-2.4097 1.7195-4.2304 4.0296-4.2304 2.3379 0 3.976 1.7943 3.976 4.2304 0 2.4098-1.692 4.2041-4.0022 4.2041zM46.0474 5.5697c-2.0954 0-3.466 0.8566-4.2718 2.0619V5.8373l-3.1976 0v13.8441h3.2238v-7.5242c0-2.1158 1.3432-3.6152 3.3313-3.6152 1.8541 0 3.0087 1.3119 3.0087 3.2137v7.9267h3.2238v-8.167c13e-4-3.4823-1.7983-5.9457-5.3182-5.9457zM111.681 12.3183c0-3.9628-2.901-6.7476-6.797-6.7476-4.137 0-7.1736 3.1062-7.1736 7.2028 0 4.3116 3.2506 7.1765 7.2276 7.1765 3.358 0 5.991-1.9819 6.662-4.7931h-3.359c-0.483 1.2317-1.665 1.9282-3.251 1.9282-2.069 0-3.627-1.2855-3.976-3.535h10.666v-1.2318zM101.203 11.2468c0.511-1.9282 1.961-2.8649 3.627-2.8649 1.827 0 3.224 1.0441 3.546 2.8649z" />
        </symbol>
        <symbol id="airtable" viewBox="0 0 128 28" fill="none">
            <path fill="var(--color2, #bd81ff)" clip-rule="evenodd" d="M14.852 0.3411 2.4516 5.3228C1.762 5.5999 1.7692 6.551 2.4631 6.8181l12.4521 4.7943c1.0941 0.4213 2.3125 0.4213 3.4065 0l12.4524-4.7945c0.6937-0.2669 0.7012-1.2178 0.0112-1.4949l-12.4-4.9821c-1.1313-0.4545-2.4022-0.4545-3.5335 0zM51.2958 15.5514 49.0704 9.7272c-0.0908-0.2382-0.4378-0.2382-0.5288 0l-2.225 5.8245c-0.0158 0.0414-0.021 0.0859-0.0153 0.1297 58e-4 0.0438 0.0223 0.0856 0.0483 0.1219 0.026 0.0362 0.0606 0.0658 0.1009 0.0862 0.0403 0.0205 0.0852 0.0311 0.1306 0.0311h4.4502c0.0454 0 0.0902-0.0107 0.1306-0.0311 0.0403-0.0205 0.0749-0.0501 0.1008-0.0864 0.026-0.0362 0.0426-0.078 0.0483-0.1219 57e-4-0.0438 4e-4-0.0883-0.0154-0.1297zM52.3234 18.825h-7.0346c-0.0575 0-0.1137 0.0171-0.161 0.049-0.0472 0.0319-0.0833 0.0771-0.1033 0.1295l-1.385 3.6239c-0.02 0.0524-0.0561 0.0976-0.1033 0.1295-0.0473 0.0319-0.1035 0.049-0.161 0.049H40.326c-0.0461 0-0.0915-0.0109-0.1322-0.0319s-0.0755-0.0514-0.1013-0.0884c-0.0258-0.0371-0.0419-0.0798-0.0468-0.1243s15e-4-0.0895 0.0186-0.131l7.0201-16.9791c0.021-0.0508 0.0572-0.0942 0.1039-0.1248 0.0466-0.0306 0.1017-0.0469 0.158-0.0468l2.9196 0c0.1151 0 0.2187 0.0679 0.2617 0.1716l7.0199 16.9789c0.0172 0.0416 0.0237 0.0866 0.0188 0.1312-49e-4 0.0445-0.0209 0.0872-0.0467 0.1243-0.0259 0.0371-0.0607 0.0675-0.1015 0.0886-0.0407 0.021-0.0862 0.0319-0.1323 0.0319h-3.0486c-0.0576 0-0.1138-0.0171-0.161-0.0491-0.0473-0.0319-0.0833-0.0771-0.1033-0.1296l-1.3852-3.6239c-0.02-0.0524-0.0561-0.0976-0.1033-0.1295-0.0473-0.0319-0.1035-0.049-0.161-0.049zM58.9761 11.2384h2.6079c0.0748 0 0.1465 0.0288 0.1994 0.0802 0.0529 0.0513 0.0826 0.121 0.0826 0.1936v11.02c0 0.0726-0.0297 0.1422-0.0826 0.1936-0.0529 0.0513-0.1246 0.0801-0.1994 0.0801h-2.6079c-0.0748 0-0.1465-0.0288-0.1994-0.0801-0.0529-0.0514-0.0826-0.121-0.0826-0.1936V11.512c0-0.0726 0.0297-0.1422 0.0826-0.1936 0.0529-0.0513 0.1246-0.0802 0.1994-0.0802zM71.3773 13.919c0 0.0726-0.0297 0.1423-0.0826 0.1936-0.0529 0.0514-0.1246 0.0802-0.1994 0.0802h-0.079c-1.2895 0-2.2353 0.3004-2.8369 0.9013-0.6019 0.6009-0.9024 1.5942-0.9024 2.9796v4.4585c0 0.0726-0.0297 0.1422-0.0826 0.1936-0.0529 0.0513-0.1246 0.0801-0.1994 0.0801h-2.5823c-0.0748 0-0.1465-0.0288-0.1994-0.0801-0.0529-0.0514-0.0826-0.121-0.0826-0.1936V11.512c0-0.0726 0.0297-0.1422 0.0826-0.1936 0.0529-0.0513 0.1246-0.0802 0.1994-0.0802h2.5564c0.0748 0 0.1465 0.0289 0.1994 0.0802 0.0529 0.0514 0.0826 0.121 0.0826 0.1936v2.1798h0.0517c0.3094-0.9014 0.7993-1.5937 1.4701-2.0781 0.6702-0.4839 1.4956-0.7261 2.4754-0.7261h0.129v3.0312zM78.5081 13.8172c-0.0748 0-0.1465 0.0288-0.1994 0.0801-0.0529 0.0514-0.0826 0.121-0.0826 0.1936v4.5837c0 0.4675 0.094 0.8013 0.2835 1.0015 0.1889 0.2003 0.5157 0.3005 0.9798 0.3005h0.2597c0.0748 0 0.1465 0.0288 0.1994 0.0802 0.0529 0.0513 0.0826 0.121 0.0826 0.1936v2.3066c0 0.0726-0.0297 0.1422-0.0826 0.1936-0.0529 0.0513-0.1246 0.0802-0.1994 0.0802h-1.1107c-1.1519 0-2.0372-0.2879-2.6561-0.8638-0.6191-0.5758-0.9285-1.431-0.9285-2.5663v-5.3098c0-0.0726-0.0297-0.1422-0.0826-0.1936-0.0529-0.0513-0.1246-0.0801-0.1994-0.0801h-1.6279c-0.0748 0-0.1465-0.0289-0.1994-0.0802-0.0529-0.0514-0.0826-0.121-0.0826-0.1936V11.512c0-0.0726 0.0297-0.1422 0.0826-0.1936 0.0529-0.0513 0.1246-0.0802 0.1994-0.0802h1.6281c0.0748 0 0.1465-0.0288 0.1994-0.0802 0.0529-0.0513 0.0826-0.121 0.0826-0.1936V6.88c0-0.0726 0.0297-0.1423 0.0826-0.1936 0.0529-0.0514 0.1246-0.0802 0.1994-0.0802l2.6079 0c0.0748 0 0.1465 0.0288 0.1994 0.0802 0.0529 0.0513 0.0826 0.121 0.0826 0.1936v4.0844c0 0.0726 0.0297 0.1423 0.0826 0.1936 0.0529 0.0514 0.1246 0.0802 0.1994 0.0802h1.8858c0.0748 0 0.1465 0.0289 0.1994 0.0802 0.0529 0.0514 0.0826 0.121 0.0826 0.1936v2.0315c0 0.0727-0.0297 0.1423-0.0826 0.1936-0.0529 0.0514-0.1246 0.0802-0.1994 0.0802h-1.8856zM90.45 19.3757c0.5931-0.6009 0.8896-1.3854 0.8896-2.3537 0-0.9678-0.2965-1.7526-0.8896-2.3535s-1.3713-0.9014-2.334-0.9014c-0.963 0-1.7405 0.3005-2.3338 0.9014-0.593 0.6009-0.8897 1.3857-0.8897 2.3535 0 0.9683 0.2967 1.7528 0.8897 2.3537 0.5933 0.6009 1.3708 0.9013 2.3338 0.9013 0.9627 0 1.7409-0.3004 2.334-0.9013zM84.4284 22.4553c-0.8768-0.4839-1.5691-1.1893-2.0759-2.1157-0.5074-0.9263-0.7608-2.0321-0.7608-3.3176 0-1.285 0.2534-2.3911 0.7608-3.3175 0.5068-0.9263 1.1991-1.6312 2.0759-2.1157 0.8768-0.484 1.8394-0.726 2.8882-0.726 0.9283 0 1.7234 0.1752 2.3857 0.5256 0.6614 0.3505 1.19 0.8431 1.5858 1.4774h0.0515V11.512c0-0.0726 0.0297-0.1422 0.0826-0.1936 0.0529-0.0513 0.1246-0.0802 0.1994-0.0802h2.5822c0.0748 0 0.1465 0.0289 0.1994 0.0802 0.0529 0.0514 0.0826 0.121 0.0826 0.1936v11.02c0 0.0726-0.0297 0.1422-0.0826 0.1936-0.0529 0.0513-0.1246 0.0802-0.1994 0.0802h-2.5822c-0.0748 0-0.1465-0.0289-0.1994-0.0802-0.0529-0.0514-0.0826-0.121-0.0826-0.1936v-1.3537h-0.0515c-0.3958 0.6347-0.9244 1.1268-1.586 1.4772-0.6621 0.3505-1.457 0.5257-2.3855 0.5257-1.0488 0-2.0114-0.242-2.8882-0.7259zM105.225 19.3757c0.593-0.6009 0.889-1.3854 0.889-2.3537 0-0.9678-0.296-1.7526-0.889-2.3535s-1.371-0.9014-2.334-0.9014-1.741 0.3005-2.334 0.9014c-0.5928 0.6009-0.8896 1.3857-0.8896 2.3535 0 0.9683 0.2968 1.7528 0.8896 2.3537 0.593 0.6009 1.371 0.9013 2.334 0.9013s1.741-0.3004 2.334-0.9013zM101.305 22.6555c-0.662-0.3504-1.191-0.8425-1.5859-1.4772h-0.0517v1.3537c0 0.0726-0.0297 0.1422-0.0826 0.1936-0.0529 0.0513-0.1246 0.0802-0.1994 0.0802h-2.6079c-0.0748 0-0.1465-0.0289-0.1994-0.0802-0.0529-0.0514-0.0826-0.121-0.0826-0.1936V5.5528c0-0.0726 0.0297-0.1422 0.0826-0.1936 0.0529-0.0513 0.1246-0.0802 0.1994-0.0802l2.6079 0c0.0748 0 0.1465 0.0289 0.1994 0.0802 0.0529 0.0514 0.0826 0.121 0.0826 0.1936v7.3128h0.0517c0.3949-0.6343 0.9239-1.1267 1.5859-1.4772 0.662-0.3506 1.457-0.5258 2.386-0.5258 1.048 0 2.011 0.242 2.888 0.7261 0.877 0.4844 1.568 1.1893 2.076 2.1155 0.507 0.9268 0.761 2.033 0.761 3.318 0 1.2855-0.254 2.3911-0.761 3.3176-0.507 0.9263-1.199 1.6318-2.076 2.1155-0.877 0.4841-1.84 0.7263-2.888 0.7263-0.929 0-1.724-0.1752-2.386-0.5259zM113.81 22.8059h-2.608c-0.075 0-0.147-0.0288-0.2-0.0801-0.053-0.0514-0.082-0.121-0.082-0.1936V5.5534c0-0.0727 0.029-0.1423 0.082-0.1936 0.053-0.0514 0.125-0.0802 0.2-0.0802l2.608 0c0.074 0 0.146 0.0288 0.199 0.0802 0.053 0.0513 0.083 0.1209 0.083 0.1936v16.9788c0 0.0726-0.03 0.1422-0.083 0.1936-0.053 0.0513-0.125 0.0801-0.199 0.0801zM119.961 13.9175c-0.432 0.3275-0.724 0.8002-0.875 1.4187-0.042 0.1704 0.095 0.334 0.276 0.334h4.963c0.172 0 0.308-0.1497 0.28-0.3147-0.1-0.585-0.358-1.0514-0.775-1.4004-0.49-0.4088-1.131-0.6132-1.922-0.6132s-1.44 0.1918-1.947 0.5756zM126.318 12.4778c1.014 1.0769 1.522 2.6001 1.522 4.5694v0.3271c0 0.0726-0.03 0.1422-0.083 0.1936-0.053 0.0513-0.125 0.0802-0.199 0.0802h-8.292c-0.041 0-0.082 89e-4-0.119 0.0258-0.038 0.017-0.071 0.0417-0.098 0.0724-0.026 0.0307-0.046 0.0666-0.056 0.1053-0.011 0.0388-0.013 0.0793-6e-3 0.1188 0.132 0.7316 0.466 1.3127 1 1.7433 0.61 0.4929 1.38 0.7387 2.308 0.7387 1.199 0 2.308-0.4541 3.328-1.3625 0.125-0.111 0.322-0.0875 0.419 0.0474l1.268 1.7669c0.04 0.0549 0.057 0.1222 0.049 0.1889s-0.041 0.1282-0.092 0.1729c-0.623 0.5288-1.315 0.9751-2.058 1.3271-0.825 0.3921-1.797 0.5885-2.914 0.5885-1.289 0-2.416-0.2548-3.378-0.7637-0.963-0.5089-1.711-1.2266-2.244-2.1533-0.533-0.9263-0.799-1.9987-0.799-3.2174 0-1.2182 0.258-2.2948 0.773-3.2299 0.516-0.9345 1.238-1.6606 2.167-2.1783 0.928-0.5171 2.011-0.7761 3.249-0.7761 1.822 0 3.241 0.5385 4.255 1.6149zM62.2067 7.1644c0 1.0327-0.8624 1.87-1.9263 1.87-1.064 0-1.9264-0.8373-1.9264-1.8702 0-1.033 0.8626-1.8702 1.9264-1.8702 1.0639 0 1.9263 0.8372 1.9263 1.8702zM17.7233 26.2072V14.2304c0-0.1616 0.05-0.3195 0.1436-0.4532 0.0935-0.1336 0.2262-0.237 0.3809-0.2966l13.8755-5.2291c0.5454-0.2099 1.1371 0.1802 1.1371 0.7499v11.9767c0 0.1617-0.05 0.3196-0.1435 0.4533s-0.2263 0.237-0.3811 0.2966l-13.8755 5.229c-0.5453 0.2099-1.137-0.1803-1.137-0.7498zM10.3652 16.7787v0l-0.4181 0.1962-8.6928 4.0439C0.7035 21.2769 0 20.8871 0 20.2927V9.0515c0-0.215 0.1136-0.4006 0.2658-0.5403 1e-4 0 1e-4 0 1e-4-1e-4l0 0c0.0546-0.0528 0.1157-0.0989 0.1818-0.1372 64e-4-37e-4 0.0128-73e-4 0.0192-0.0108 32e-4-18e-4 63e-4-35e-4 95e-4-52e-4 0.0778-0.0454 0.1681-0.0783 0.2639-0.0966 0.1326-0.0253 0.2756-0.0227 0.4105 0.0136 0.0275 74e-4 0.0547 0.0162 0.0814 0.0264l13.1817 5.071c0.6701 0.2581 0.7227 1.1697 0.0692 1.4762 0 0 0 0 0 0v-2e-4z" fill-rule="evenodd" />
        </symbol>
    </defs>
</svg>